<svg xmlns="http://www.w3.org/2000/svg" viewBox="0 0 1670.87 870.3" fill="#fff"><path d="M1352.67 20v318.2h318.2L1352.67 20z" opacity=".17"/><path d="M1034.47 338.2h318.2V20l-318.2 318.2z" opacity=".04"/><path d="M1352.67 656.4V338.2h-318.2l318.2 318.2z" opacity=".07"/><path d="M1670.87 338.2l-318.2 318.2V338.2h318.2z" opacity=".12"/><path d="M154.1 562.1v154.1h154.1L154.1 562.1z" opacity=".17"/><path d="M0 716.2h154.1V562.1L0 716.2z" opacity=".04"/><path d="M154.1 870.3V716.2H0l154.1 154.1z" opacity=".07"/><path d="M308.2 716.2L154.1 870.3V716.2h154.1z" opacity=".12"/><path d="M398.55 0v90.35h90.35L398.55 0z" opacity=".17"/><path d="M308.2 90.35h90.35V0L308.2 90.35z" opacity=".04"/><path d="M398.55 180.7V90.35H308.2l90.35 90.35z" opacity=".07"/><path d="M488.9 90.35l-90.35 90.35V90.35h90.35z" opacity=".12"/></svg>